<svg xmlns="http://www.w3.org/2000/svg" viewBox="0 0 95 128" style="enable-background:new 0 0 95 128" xml:space="preserve"><path d="M45 16.6h-3.5c-5 0-6.3.5-7.6 2.8-.7 1.3-.7 1-.8 8.9v7.1l-1 .4C14.7 41.8 2.5 56.9.3 75.2 0 77.1 0 83.8.2 85.6c1.7 14.2 8.7 25.9 20.1 33.9 11.9 8.4 27.9 10.8 41.8 6.2 27.5-9 40.7-40.2 28-66.1C84.6 48.3 73.8 39 62.4 35.4l-.6-.2v-7.1c0-7.9 0-7.6-.8-8.9-1.3-2.3-2.6-2.8-7.6-2.8h-3.5l-4.9.2zm11.6 5 .3.2v11.3H38V21.8l.3-.2c.5-.4 17.8-.4 18.3 0zM49.4 38c32.9 1.6 51.7 38.2 33.8 65.7-16.8 25.8-54.7 25.8-71.4 0-17.9-27.3.8-64.1 33.5-65.7.9 0 1.7-.1 1.8-.1s1.1.1 2.3.1z" style="fill:#fff"/></svg>