<svg width="28" height="42" viewBox="0 0 28 42" fill="none" xmlns="http://www.w3.org/2000/svg">
<path d="M18.138 15.4019V13.1455H17.5299C17.5355 13.0685 17.5383 12.9915 17.5383 12.9131C17.5383 11.1445 16.2349 9.6754 14.5386 9.41453V8.48213H15.0197C15.4028 8.8662 15.8438 9.22553 16.3296 9.5424C17.3614 10.2177 19.4778 10.7716 20.3957 9.33473C20.2706 9.09487 20.0368 8.72433 19.8268 8.48587C19.7321 8.78453 18.0404 10.0949 15.2003 7.077C15.2003 7.077 19.5487 6.125 20.5782 8.95113C20.679 8.53533 20.8437 8.07473 21.0052 7.623C21.2506 6.93887 21.5036 6.23187 21.5647 5.5944C21.6688 4.49213 21.1414 3.94847 20.6799 3.68573C20.349 3.49767 19.9617 3.40247 19.5268 3.40247C18.5636 3.40247 17.3372 3.8752 15.8807 4.80853C15.3394 5.15527 14.8704 5.49967 14.539 5.75493V0H13.4606V5.7554C13.1288 5.49967 12.6598 5.1562 12.1175 4.809C10.662 3.87567 9.43511 3.40247 8.4719 3.40247C8.03744 3.40247 7.64964 3.49767 7.3183 3.68573C6.8577 3.948 6.3299 4.4926 6.43397 5.5944C6.4951 6.23187 6.74804 6.93933 6.99397 7.62347C7.1559 8.0752 7.32064 8.5358 7.42144 8.9516C8.4495 6.125 12.7988 7.07747 12.7988 7.07747C9.95917 10.0954 8.26751 8.785 8.17277 8.4868C7.96324 8.72573 7.72804 9.09627 7.6039 9.3352C8.52137 10.7725 10.6372 10.2195 11.67 9.54333C12.1558 9.22507 12.5963 8.86713 12.9799 8.48307H13.461V9.41547C11.7647 9.67633 10.4604 11.1454 10.4604 12.9141C10.4604 12.9925 10.4641 13.0695 10.4688 13.1465H9.86164V15.4028C4.3629 17.1542 0.380371 22.3015 0.380371 28.3813C0.380838 35.903 6.47784 42 14 42C21.5218 42 27.6192 35.903 27.6192 28.3808C27.6192 22.3011 23.6358 17.1533 18.138 15.4019ZM5.28644 29.4966L3.8813 29.5834C3.87617 29.5078 3.77117 27.6976 4.30084 25.62C5.02417 22.7817 6.59077 20.8171 8.83124 19.9379L9.34551 21.2483C4.94531 22.9745 5.28224 29.4313 5.28644 29.4966ZM15.4056 13.1455H12.5949C12.5823 13.0699 12.5744 12.9925 12.5744 12.9131C12.5744 12.1263 13.2142 11.4865 14.0005 11.4865C14.7868 11.4865 15.4266 12.1268 15.4266 12.9131C15.4257 12.9925 15.4182 13.0699 15.4056 13.1455Z" fill="white"/>
</svg>
