<svg width="32" height="42" viewBox="0 0 32 42" fill="none" xmlns="http://www.w3.org/2000/svg">
<path d="M20.3748 37.6252C20.3748 40.0417 18.4166 42 16 42C13.585 42 11.6252 40.0417 11.6252 37.6252H20.3748Z" fill="white"/>
<path d="M5.5 22.3293C5.5 27.2753 3.49397 31.7562 0.25 35.0002H31.75C28.506 31.7562 26.5 27.2753 26.5 22.3293V17.4998C26.5 14.8066 25.4762 12.359 23.8083 10.5H24.7502C27.6487 10.5 30.0002 8.14853 30.0002 5.25C30.0002 2.35148 27.6487 0 24.7502 0C23.3007 0 21.9881 0.588 21.0384 1.53825L16 6.82553L10.9616 1.53825C10.0113 0.588 8.69882 0 7.24983 0C4.3513 0 1.99983 2.35148 1.99983 5.25C1.99983 8.14853 4.3513 10.5 7.24983 10.5H8.1901C6.52375 12.3596 5.5 14.8066 5.5 17.4998V22.3293ZM23.5726 3.95115C23.7044 3.82147 24.1197 3.50018 24.7502 3.50018C25.7157 3.50018 26.5 4.2861 26.5 5.25C26.5 6.2139 25.7157 6.99983 24.7502 6.99983H20.6694L23.5726 3.95115ZM5.5 5.25C5.5 4.2861 6.28435 3.50018 7.24983 3.50018C7.88035 3.50018 8.29562 3.82147 8.4274 3.95115L11.3306 7.00035H7.24983C6.28435 6.99983 5.5 6.2139 5.5 5.25Z" fill="white"/>
</svg>
