<svg xmlns="http://www.w3.org/2000/svg" xmlns:xlink="http://www.w3.org/1999/xlink" width="88" height="31"><defs><radialGradient xlink:href="#a" id="d" cx="15.786" cy="999.853" fx="15.786" fy="999.853" r="44" gradientTransform="matrix(.64123 0 0 .72928 5.663 306.171)" gradientUnits="userSpaceOnUse"/><radialGradient xlink:href="#b" id="c" cx="15.429" cy="1036.862" fx="15.429" fy="1036.862" r="44" gradientTransform="matrix(.64935 0 0 .52273 5.41 494.866)" gradientUnits="userSpaceOnUse"/><linearGradient id="a"><stop offset="0" stop-color="#fff"/><stop offset="1" stop-opacity=".454"/></linearGradient><linearGradient id="b"><stop offset="0" stop-color="#3c3c3c"/><stop offset="1" stop-color="#3c3c3c" stop-opacity="0"/></linearGradient><pattern patternUnits="userSpaceOnUse" width="745" height="745" patternTransform="translate(.976 1021.23) scale(.04152)" id="e"><g transform="scale(3.80102)"><circle cx="98" cy="98" r="88" fill="none" stroke="#000" stroke-width="20"/><path d="M97.281 43c-26.063 0-47.9 18.153-53.562 42.5H70C74.742 75.173 85.18 68 97.281 68c16.56 0 30 13.44 30 30 0 16.56-13.44 30-30 30-12.101 0-22.54-7.173-27.281-17.5H43.719c5.662 24.347 27.5 42.5 53.562 42.5 30.36 0 55-24.64 55-55s-24.64-55-55-55z"/></g></pattern></defs><g transform="translate(0 -1021.362)"><rect width="87" height="30" x=".5" y="1021.862" rx="2.405" ry="2.652" fill="#fff" stroke="#000" stroke-linecap="round"/><rect ry="2.652" rx="2.405" y="1021.862" x=".5" height="30" width="87" fill="url(#c)" stroke="#000" stroke-linecap="round"/><path d="M87.5 1037.196v12.015c0 1.469-1.073 2.651-2.405 2.651H2.905c-1.332 0-2.405-1.183-2.405-2.652l.126-11.977 86.874-.037z" stroke="#000" stroke-linecap="round"/><text style="text-align:center;-inkscape-font-specification:Arial" x="66.164" y="928.16" transform="scale(.8991 1.11221)" font-size="12.47" font-weight="400" text-anchor="middle" font-family="Arial"><tspan x="66.164" y="928.16" style="text-align:center;-inkscape-font-specification:Bitstream Vera Sans Bold" font-size="9.352" font-weight="700">Some Rights</tspan></text><path d="M87.374 1037.196l.126 12.014c0 1.47-1.073 2.652-2.405 2.652H2.905c-1.332 0-2.405-1.183-2.405-2.652v-11.85l86.874-.164z" fill="url(#d)" stroke="#000" stroke-linecap="round"/><text style="-inkscape-font-specification:Arial" x="45.061" y="938.875" transform="scale(.89576 1.11637)" font-size="7.487" font-weight="400" fill="#fff" font-family="Arial"><tspan x="45.061" y="938.875" style="-inkscape-font-specification:Bitstream Vera Sans Bold" font-size="9.358" font-weight="700">Reserved</tspan></text><path d="M30.536 1036.827c0 7.79-6.476 14.107-14.465 14.107-7.988 0-14.464-6.316-14.464-14.107 0-7.792 6.476-14.108 14.464-14.108 7.989 0 14.465 6.316 14.465 14.108z" fill="#fff"/><path fill="url(#e)" d="M.976 1021.231h30.929v30.929H.976z"/></g></svg>