<svg xmlns="http://www.w3.org/2000/svg" xmlns:xlink="http://www.w3.org/1999/xlink" xml:space="preserve" version="1.1" style="shape-rendering:geometricPrecision;text-rendering:geometricPrecision;image-rendering:optimizeQuality;" viewBox="0 0 846.66 1058.325" x="0px" y="0px" fill-rule="evenodd" clip-rule="evenodd"><g><path fill="#fff" d="M507.98 97.27l-169.38 0 0 169.4 169.38 0 0 -169.4zm253.82 482.72l-169.4 0 0 169.4 169.4 0 0 -169.4zm-507.54 0l-169.4 0 0 169.4 169.4 0 0 -169.4zm253.72 0l-169.38 0 0 169.4 169.38 0 0 -169.4zm253.82 -241.38l-169.4 0 0 169.39 169.4 0 0 -169.39zm-507.54 0l-169.4 0 0 169.39 169.4 0 0 -169.39zm253.72 0l-169.38 0 0 169.39 169.38 0 0 -169.39zm253.82 -241.34l-169.4 0 0 169.4 169.4 0 0 -169.4zm-507.54 0l-169.4 0 0 169.4 169.4 0 0 -169.4z"/></g></svg>