<svg width="189" height="178" viewBox="0 0 189 178" fill="none" xmlns="http://www.w3.org/2000/svg">
<path fill-rule="evenodd" clip-rule="evenodd" d="M144.174 11.019H45.3711V22.4889H11.0176V76.2894C11.0176 97.082 34.209 114.192 56.9668 115.972C64.4379 123.982 77.5789 129.801 89.2747 132.282V146.344C78.0903 149.781 58.1119 157.858 56.9668 166.658H133.723C132.567 157.858 110.554 149.77 99.3473 146.344V132.282C111.088 129.801 124.818 123.982 132.3 115.972C155.047 114.192 177.215 97.082 177.215 76.2894V22.4889H144.174V11.019ZM21.5682 32.6794H44.5706V79.0262C44.5706 88.1709 46.9276 96.8707 51.0745 104.703C33.8643 99.218 21.5682 85.0893 21.5682 68.5575V32.6794ZM111.666 89.2055L94.5 79.7382L77.3121 89.2055L80.5918 69.1805L66.6947 55.0073L85.8949 52.0814L94.5 33.8809L103.083 52.0814L122.283 55.0073L108.386 69.1805L111.666 89.2055ZM137.181 106.182C141.35 97.9943 143.74 88.9385 143.74 79.3599V32.9798H166.798V68.424C166.798 85.7012 154.446 100.453 137.181 106.182Z" fill="#FFBCA2"/>
</svg>
