<svg width="40" height="36" viewBox="0 0 40 36" fill="none" xmlns="http://www.w3.org/2000/svg">
<path d="M5.45233 34.5474C5.45233 34.5474 5.40533 35.4405 6.29839 35.4405C7.37947 35.4405 16.3571 35.4405 16.3571 35.4405V27.1679C16.3571 27.1679 16.2161 25.8048 17.5322 25.8048H21.7155C23.2667 25.8048 23.1727 27.1679 23.1727 27.1679V35.3935C23.1727 35.3935 31.6803 35.3935 33.0434 35.3935C34.1715 35.3935 34.1245 34.2654 34.1245 34.2654V19.0362L20.2114 6.67432L5.45233 19.0362V34.5474Z" fill="white"/>
<path d="M0 17.9083C0 17.9083 1.2691 20.2115 3.9953 17.9083L20.3055 4.08931L35.6287 17.8143C38.7779 20.1175 40 17.8143 40 17.8143L20.3055 0L0 17.9083Z" fill="white"/>
<path d="M35.2527 4.04248H31.3044L31.3514 8.83684L35.2527 12.1741V4.04248Z" fill="white"/>
</svg>
