<svg version="1.0" xmlns="http://www.w3.org/2000/svg" width="1706.667" height="853.333" viewBox="0 0 1280 640"><path d="M352.5 105.9c-7.2 1.8-7.9 2.8-9 12.1-.4 3-1.1 6.2-1.6 7.1-.4.9-9.7 5.1-20.6 9.4-77.4 30.4-134.8 54-160.3 66.1-16.3 7.7-22.2 9.1-42.1 10.4-8.5.5-17 1.4-18.9 2-10.1 3.2-36.2 5.8-62 6.3l-11.5.2-4.7 8c-4.7 7.8-4.7 8-2.9 10 3.4 3.6 3.5 7.7.5 17.7-3 9.9-3.4 17.8-1.9 37 .5 6.7.4 8.8-.6 8.8-2.9 0-8.3 5.6-11 11.4-5 10.6-7.4 34.3-4.8 46.7 1.3 5.8 1.3 6.2.3 15.9-.5 5.4 1.6 23.8 2.8 24.4.2.1 2.9 2 6.1 4.1 7.3 4.9 12.3 10.3 13.2 14.3 1.7 7.9 16.7 15.5 35.5 18.1 10.4 1.5 96.9 9.7 108.7 10.4l3.2.2.5-16c.7-23 5-39.4 14.6-55.9 28.1-47.9 91.7-67.3 140.5-42.9 31.6 15.9 53 42.4 59.8 74.2 2.2 10.6 2.9 36.5 1.3 51.9l-.8 8.2H687c285.5 0 300.2-.1 299.5-1.8-3.3-8.7-5.6-32.5-4.5-46.1 2.8-32 17.7-56.7 45.9-75.9 39.9-27.3 84.7-28.2 124.3-2.4 23.9 15.7 39.7 39.2 46 68.7 1.8 8.4 1.5 34.1-.5 43-.8 3.8-1.4 7.1-1.2 7.3.7.8 38.6-2 47.8-3.4 18-2.8 25.3-6.5 30.4-15.2 2.4-4.1 2.8-5.7 2.8-12.7-.1-4.4-.9-11.7-2-16.3-1.8-7.9-1.8-8.8-.2-19 3.1-19.9 4-30.6 4.1-49.7.1-17.6-.1-19.5-2.3-26-4.6-13.5-10.3-19-28.3-27.4-22.2-10.4-63.3-22-116.8-33-52.3-10.8-152.4-21-205.4-21.1h-22.9l-23.6-13.9c-81.3-47.7-159.3-88.4-185.2-96.6-49.8-15.7-159.8-19.5-289.2-10l-18.8 1.4-4.7-3c-9.2-5.8-22.3-8.9-29.7-7zM543.7 137c1.3 4.5 5.8 30.5 8.8 51.5 3.3 22.6 7.4 53.9 7.1 54.2-.7.7-167.2-4-205.4-5.8-35.7-1.6-46.4-5.6-57.3-21.5-6.2-9.1-8.7-22.5-5.9-32.6 1.2-4 5.6-7.4 19.2-14.8 36.9-19.8 79.9-28.9 161.8-34 24.6-1.5 29-1.6 51-1.6l19.4.1 1.3 4.5zm64.9-1c38.3 3.6 71.7 8.6 93.4 13.9 21 5.2 45.1 16.3 72 33.2 14.1 8.8 37.9 25.9 38 27.1 0 .5-1.4.8-3.2.8-4.8 0-11.4 3.7-14 7.8-2.4 3.9-3 11.3-1.5 18.9l.9 4.3H613.4l-17.6-54-17.5-54h4.7c2.5 0 14.1.9 25.6 2z"/><path d="M261.7 327.5c-43.1 8.2-77.4 44-83.8 87.5-1.7 11.7-.7 29.2 2.4 41 11.3 43.6 49.7 75.1 94.7 77.7 50.7 2.9 95.9-31.3 107.6-81.3 2.8-11.7 2.6-34.8-.4-46.7-9.4-37.8-38.3-67-76-76.8-10.5-2.7-33.6-3.4-44.5-1.4zm37.8 31c8.4 2.1 20.9 8.5 28 14.2 11.6 9.4 21 24.2 25.1 39.3 2.3 8.7 2.4 26 0 35.5-5.8 23.7-24.2 43.9-47.3 51.9-53.1 18.6-107.4-27.7-96.9-82.8 3-15.2 9.4-27.4 20.6-38.6 11.1-11 23.7-17.8 38.5-20.6 8.4-1.6 23.5-1.1 32 1.1z"/><path d="M291.8 383.2c.2 9 .7 16.7 1.2 17.2 1.7 1.7 10.8-5.8 20.1-16.6l5.1-5.7-4.8-3.1c-5.2-3.3-13.1-6.5-18.5-7.5l-3.4-.6.3 16.3zM259.1 370c-6.2 2.2-16.7 8.2-16.4 9.4.3 1.3 23.7 21.6 24.9 21.6.7 0 1.5-.7 1.8-1.6.8-2 .8-12.7-.1-23.2-.7-9.5-.8-9.6-10.2-6.2zM320.9 404.5c-5.7 6.4-10.5 12.3-10.7 13.1-.6 2.5 4.6 3.5 15.7 2.9 5.8-.3 12.1-.8 13.9-1.1 3.3-.5 3.4-.6 2.7-4.2-.7-4.4-6.4-16.7-9.2-20.1l-1.9-2.4-10.5 11.8zM226 399.1c-3.1 4.4-6.8 13.3-7.7 18.6l-.6 3.3h15.5c16.5 0 20.1-.9 18.1-4.4-1.3-2.4-20.4-21.6-21.4-21.6-.5 0-2.2 1.8-3.9 4.1zM278.6 404.6c-3.6 3.5 0 8.7 4.4 6.4 2.6-1.4 2.6-5.6.1-7-2.5-1.3-2.7-1.3-4.5.6zM275.1 421.4c-5.7 3.2-6.8 11.1-2.2 15.7 4.3 4.2 10.1 4.3 14.3.1 4.2-4.2 4.1-10-.1-14.3-3.3-3.2-7.8-3.8-12-1.5zM256 426.4c-1.9 2.3-.8 6.1 1.8 6.4 4.4.7 6.7-3.2 3.6-6.2-1.9-2-3.8-2-5.4-.2zM300.2 427.6c-2.7 1.9-2.8 3.6-.3 5.8 2.5 2.3 6.1.6 6.1-2.9 0-3.3-3-4.9-5.8-2.9zM224.5 440.7c-7.7.6-7.6.5-5.9 6.5 1.6 5.5 6.1 14.6 9.2 18.6l1.8 2.3 10.3-12.2c5.7-6.7 10.4-12.9 10.5-13.8.1-1.4-1.4-1.6-10.4-1.7-5.8 0-12.7.1-15.5.3zM316.5 441.9c-4.4.4-6.1 1-6.3 2.2-.3 1.6 21 22.9 22.8 22.9 2.2 0 8.6-14.1 10.5-22.8l.7-3.2-10.9.2c-5.9.1-13.5.4-16.8.7zM277.6 448.6c-1.9 1.8-1.9 2-.6 4.5.6 1.1 2.1 1.9 3.5 1.9 2 0 4.5-2.4 4.5-4.4 0-1-3.2-3.6-4.5-3.6-.7 0-2.1.7-2.9 1.6zM258.9 465.7c-8.6 9-13.9 15.1-13.9 16.2 0 2.5 17.9 10.1 23.6 10.1h2.7l-.7-14.3c-.9-16.6-1.3-18.7-3.5-18.7-.9 0-4.6 3-8.2 6.7zM293.6 459.9c-.6 1-2.4 16.8-2.9 25.8-.3 6-.2 6.3 1.9 6.3 7.9 0 26.2-6.8 24.8-9.2-.5-.7-5.3-6.4-10.8-12.6-9.3-10.5-11.7-12.4-13-10.3zM1072.3 327.5c-31.8 5.8-59.7 26.6-74.3 55.5-22.3 44.1-9.8 99.6 28.9 128.8 11.2 8.4 18.8 12.5 31.1 16.6 27.4 9.1 54.5 7 80.2-6.1 55.2-28.2 73.5-98.3 39.2-150-22.5-33.9-65.1-52.1-105.1-44.8zm38.5 31.5c34.8 9.8 57.9 44.3 53.2 79.6-6.7 50.8-59.6 79.6-105.5 57.4-23.9-11.6-39.6-35.2-41.2-62-2-33.5 19.2-64 51.6-74.5 12.2-4 28.9-4.2 41.9-.5z"/><path d="M1101.7 383.2c.3 9 .9 16.7 1.4 17.2 1.3 1.4 5.3-1.8 15.5-12.2l9.5-9.7-2.3-1.8c-5-4-18.9-9.7-23.5-9.7-1 0-1.1 3.3-.6 16.2zM1070.5 369.4c-5 1.6-13.3 5.8-16.3 8.2l-2.3 1.9 12.1 10.7c6.7 6 12.8 10.8 13.5 10.8 2.3 0 2.7-3.9 2-18.6-.8-16.2-.4-15.7-9-13zM1130.7 404.6c-5.9 6.5-10.7 12.6-10.7 13.6 0 1.1 1.1 1.8 3.8 2.2 4.4.7 27.8-.7 28.9-1.7 1.5-1.6-5.1-18.3-9.4-23.6l-1.9-2.4-10.7 11.9zM1036.2 398.7c-3.9 6.2-7 13.4-7.8 18.4l-.7 3.9h15.2c8.6 0 16.1-.5 17.2-1 1.7-1 1.8-1.3.5-3.8-.8-1.5-5.9-7.1-11.4-12.5l-9.9-9.9-3.1 4.9zM1088.8 404.1c-2.4 1.4-2.3 5.6.2 6.9 4.4 2.3 8-2.9 4.4-6.4-1.8-1.9-2.3-1.9-4.6-.5zM1085.1 421.3c-4.9 2.9-6.6 10.1-3.5 14.6.9 1.3 3.2 2.9 5 3.7 2.9 1.2 3.9 1.2 6.8 0 9.9-4.1 8.5-18-1.9-19.2-2.4-.3-5 .1-6.4.9zM1066 426.4c-1.9 2.3-.8 6.1 1.8 6.4 4.4.7 6.7-3.2 3.6-6.2-1.9-2-3.8-2-5.4-.2zM1109.6 427.6c-.9.8-1.6 2.2-1.6 2.9 0 1.3 2.6 4.5 3.6 4.5 2 0 4.4-2.5 4.4-4.5 0-1.4-.8-2.9-1.9-3.5-2.5-1.3-2.7-1.3-4.5.6zM1033.5 440.9c-6 .6-6 .6-5.7 3.6.9 6.9 10.4 24.8 12.2 22.9 5.7-6.1 21-25 20.7-25.8-.4-1.2-17.6-1.7-27.2-.7zM1126.7 441.7c-6.8.5-7.9 1.9-4.7 6 2.3 3.1 20 19.3 21 19.3.3 0 2-2.4 3.7-5.3 2.9-4.8 5.2-11.1 6.7-18l.6-2.7-10.7.2c-6 .1-13.4.3-16.6.5zM1087 449c-1.6 3.1.4 6.2 3.8 5.8 2.1-.2 2.8-.9 3-3.2.5-4.5-4.7-6.5-6.8-2.6zM1065.1 469.7c-5.6 5.9-10.1 11.3-10.1 12 0 2.8 17.2 10.3 23.7 10.3h2.6l-.7-12.3c-1-17.9-1.5-20.7-3.6-20.7-1 0-6.3 4.8-11.9 10.7zM1103.5 459.9c-.7 1.2-2.3 14.4-2.9 24.3-.4 7.7-.4 7.8 1.9 7.8 4.5 0 13-2.2 19.3-5.1l6.4-2.9-1.9-2.3c-6.5-8.2-19.8-22.7-20.9-22.7-.7 0-1.5.4-1.9.9z"/></svg>