<svg width="38" height="42" viewBox="0 0 38 42" fill="none" xmlns="http://www.w3.org/2000/svg">
<path fill-rule="evenodd" clip-rule="evenodd" d="M4.00003 10.3333C3.33336 9.06666 1.33336 8.26666 3.00003 6.46666C1.13336 5.93333 0.266696 4.33333 0.533362 2.8C0.733362 1.6 2.53336 0.199997 3.80003 0.199997C5.33336 0.199997 6.4667 1.4 6.80003 3C7.53336 2.73333 7.80003 2.46666 8.2667 2.6C8.73336 2.73333 9.33336 3.46666 9.6667 3.86666C10.2 4.53333 10.6667 4.73333 11.5334 4.4C26.4 1.13333 38 30.9333 37.3334 41.7333C30.1334 42 -4.06664 26.5333 4.00003 10.3333ZM5.73336 3.6C5.6667 2.46666 5.00003 1.66666 4.00003 1.6C2.8667 1.53333 1.8667 2.33333 1.93336 3.53333C2.00003 4.66666 2.73336 5.4 3.73336 5.4C4.80003 5.33333 5.6667 4.4 5.73336 3.6Z" fill="white"/>
</svg>
