<svg width="38" height="42" viewBox="0 0 38 42" fill="none" xmlns="http://www.w3.org/2000/svg">
<path d="M17.9135 41.5691C17.5199 41.3141 17.1986 40.724 17.1986 40.2536V36.3367C17.1986 35.8701 16.8643 35.6777 16.4582 35.9045L14.8 36.8348C14.3926 37.0621 13.7252 37.0621 13.3216 36.8294L13.1986 36.7626C12.7907 36.5287 12.461 35.9545 12.461 35.4866V35.2073C12.461 34.742 12.7924 34.1678 13.1998 33.9373L16.3771 32.1342C16.7828 31.899 17.1159 31.3295 17.1159 30.8616V28.8725C17.1159 28.4021 16.7933 28.2257 16.3998 28.4777L14.4527 29.7305C14.0591 29.9809 13.7378 29.8078 13.7378 29.3395V27.127C13.7378 26.6587 13.406 26.4692 13.0016 26.7032L11.2468 27.7133C10.8411 27.9472 10.5093 28.5222 10.5093 28.9892V32.592C10.5093 33.0599 10.1834 33.6454 9.78689 33.8923L9.46769 34.0889C9.06911 34.3354 8.42525 34.3258 8.03381 34.07L7.95947 34.0179C7.57181 33.76 7.25135 33.167 7.25135 32.6966V30.8448C7.25135 30.3786 6.91787 30.1854 6.51047 30.4126L3.09083 32.3421C2.68511 32.5689 1.99925 32.6101 1.56791 32.4274L1.04123 32.2073C0.611995 32.0275 0.257935 31.4924 0.257935 31.0304V30.4857C0.257935 30.0191 0.593095 29.4538 1.00511 29.2291L4.65449 27.2336C5.06693 27.0094 5.05937 26.6528 4.64105 26.4411L2.94467 25.5893C2.52509 25.3798 2.18489 24.8241 2.18489 24.3558V24.0064C2.18489 23.5385 2.52215 22.9727 2.93207 22.7485L3.26387 22.5641C3.67463 22.3398 4.33991 22.3495 4.74311 22.5893L7.89059 24.4427C8.29463 24.6792 8.95697 24.6821 9.36185 24.4482L11.0918 23.4507C11.498 23.2163 11.8113 23.0126 11.7911 22.995C11.7701 22.9765 11.419 22.7732 11.0129 22.5422L9.21359 21.5074C8.80745 21.2759 8.80031 20.8841 9.19679 20.6375L10.9335 19.5619C11.3296 19.3124 11.3258 18.9189 10.9192 18.6862L9.19973 17.6862C8.79443 17.456 8.13251 17.4594 7.73057 17.6929L4.58477 19.5434C4.18031 19.7803 3.50705 19.8009 3.08747 19.5943L2.87999 19.4905C2.46167 19.2818 2.11937 18.7307 2.11937 18.2603V17.9168C2.11937 17.4489 2.45285 16.8802 2.86193 16.6505L4.50035 15.7286C4.90901 15.5001 4.90439 15.1288 4.49447 14.9045L1.00553 13.0108C0.594775 12.7907 0.258355 12.2245 0.258355 11.7571V11.2161C0.258355 10.7499 0.598135 10.1926 1.01435 9.975L1.41587 9.76878C1.83293 9.5529 2.50577 9.5718 2.90981 9.80154L6.34793 11.7877C6.75323 12.0217 7.08419 11.8306 7.08419 11.3639V9.44958C7.08419 8.9817 7.40213 8.38572 7.78853 8.12448L7.85993 8.07618C8.24675 7.81326 8.89565 7.791 9.30263 8.02704L9.64241 8.22192C10.0473 8.45628 10.3787 9.03168 10.3757 9.49914L10.3678 13.2044C10.3678 13.6752 10.6979 14.246 11.1065 14.4803L12.9285 15.5194C13.3325 15.7538 13.6652 15.5593 13.6631 15.0914L13.6564 12.9709C13.6551 12.5013 13.9907 12.3022 14.4035 12.5223L16.3662 13.5765C16.7782 13.8008 17.1163 13.5983 17.1163 13.1305V11.1392C17.1163 10.6726 16.7828 10.0976 16.3775 9.86622L13.199 8.05686C12.7912 7.82544 12.4615 7.25298 12.4615 6.78636V6.5268C12.4615 6.05598 12.7916 5.481 13.1952 5.24706L13.3225 5.17398C13.7278 4.93752 14.3939 4.93332 14.8009 5.16474L16.4578 6.0963C16.8656 6.32772 17.1999 6.1299 17.1999 5.66286V1.75476C17.1999 1.2873 17.5178 0.695101 17.9097 0.436381L18.2843 0.192781C18.6749 -0.0617392 19.3163 -0.0659392 19.7098 0.189841L20.0937 0.441841C20.4872 0.694681 20.809 1.28688 20.809 1.75434V5.66118C20.809 6.1278 21.1454 6.32604 21.5528 6.1005L23.3168 5.12064C23.7267 4.89636 24.3806 4.92072 24.7721 5.1786L24.9871 5.3235C25.3769 5.5797 25.6969 6.17484 25.6969 6.64272V6.70614C25.6969 7.17276 25.3634 7.74942 24.9565 7.97916L21.6179 9.87C21.2117 10.0997 20.8804 10.6722 20.8804 11.1388V13.13C20.8804 13.5979 21.2063 13.7781 21.6053 13.5366L23.4482 12.4152C23.8456 12.1724 24.1732 12.353 24.1732 12.8209V15.1385C24.1732 15.6089 24.5117 15.8046 24.9216 15.5845L26.8192 14.5484C27.2316 14.3241 27.5676 13.7613 27.5676 13.2905V9.2064C27.5676 8.73558 27.9145 8.1963 28.3396 7.99638L28.432 7.95102C28.8557 7.7553 29.5525 7.74984 29.9809 7.9401L30.1426 8.01024C30.5706 8.2005 30.9217 8.73516 30.9217 9.2064V11.2018C30.9217 11.6714 31.2581 11.8747 31.6702 11.6508L35.2263 9.7293C35.6375 9.50754 36.3007 9.52686 36.7018 9.76626L37.0151 9.95904C37.4141 10.2026 37.7417 10.7831 37.7417 11.2539V11.6428C37.7417 12.1107 37.4086 12.6819 37.0042 12.9129L33.5467 14.8798C33.1389 15.1112 33.1423 15.49 33.5476 15.7198L35.149 16.6139C35.5589 16.8441 35.8937 17.414 35.8937 17.8815V18.1789C35.8937 18.6467 35.5581 19.215 35.1478 19.4393L35.0356 19.5044C34.6274 19.727 33.9629 19.719 33.5593 19.4821L30.2867 17.5459C29.8835 17.3095 29.2304 17.3204 28.8347 17.569L26.996 18.7417C26.6012 18.9886 26.6037 19.3981 26.9985 19.6442L28.7247 20.7203C29.1212 20.9693 29.1153 21.3629 28.7092 21.5956L26.9187 22.622C26.5155 22.8572 26.5201 23.2252 26.9351 23.444L28.7999 24.4209C29.2148 24.6368 29.8881 24.6271 30.2976 24.4003L33.5497 22.5821C33.9579 22.3566 34.6068 22.3898 34.9877 22.6594L35.12 22.7514C35.5026 23.0257 35.8139 23.6284 35.8139 24.092V24.3008C35.8139 24.7716 35.4808 25.3403 35.0713 25.5709L33.5824 26.4062C33.175 26.6347 33.1712 27.022 33.5744 27.258L36.8429 29.2013C37.2452 29.4407 37.5741 30.0187 37.5741 30.4853V30.9922C37.5741 31.4601 37.2268 32.0002 36.8017 32.1976L36.346 32.4072C35.9185 32.6012 35.2393 32.5689 34.8307 32.3366L31.6601 30.5327C31.2523 30.3013 30.9213 30.4954 30.9213 30.9641V32.7629C30.9213 33.2308 30.5878 33.8024 30.1766 34.0292L29.9923 34.1355C29.584 34.3623 28.9166 34.3581 28.513 34.1284L28.3547 34.0364C27.946 33.8024 27.6159 33.2308 27.6159 32.7634V29.1497C27.6159 28.6818 27.2841 28.1106 26.875 27.8771L24.9103 26.7586C24.5062 26.5272 24.1727 26.7208 24.1727 27.1879V29.1808C24.1727 29.6486 23.8451 29.8313 23.4461 29.5852L21.6049 28.4647C21.2063 28.2185 20.8799 28.4029 20.8799 28.8729V30.862C20.8799 31.3299 21.2113 31.8994 21.6175 32.1346L24.7943 33.9377C25.2013 34.1687 25.5348 34.7424 25.5348 35.2078V35.5996C25.5348 36.0679 25.19 36.6227 24.7729 36.8298L24.6877 36.8726C24.2706 37.0822 23.5931 37.0629 23.1862 36.8353L21.5477 35.9079C21.1412 35.6786 20.8077 35.8705 20.8077 36.3376V40.2545C20.8077 40.7249 20.4851 41.3154 20.0899 41.567L19.7086 41.8097C19.315 42.0659 18.6737 42.063 18.281 41.8097L17.9135 41.5691Z" fill="white"/>
</svg>
