<svg width="36" height="36" viewBox="0 0 36 36" fill="none" xmlns="http://www.w3.org/2000/svg">
<path d="M18.3655 3.85092L7.64074 11.8537H4.34961C2.94201 11.8537 1.80009 13.0039 1.80009 14.4252V21.6533C1.80009 23.0742 2.94201 24.2251 4.34961 24.2251H7.64074L18.1376 32.0144C18.1376 32.0144 20.0672 33.6226 20.0672 31.9558V3.87828C20.0672 2.56716 18.3655 3.85092 18.3655 3.85092Z" fill="white"/>
<path d="M25.5084 10.3071C25.0195 9.81319 24.2239 9.81319 23.735 10.3071C23.2411 10.7945 23.2411 11.5966 23.735 12.0805C25.3521 13.6976 26.1531 15.8036 26.1531 17.92C26.1477 20.0386 25.3471 22.1579 23.735 23.77C23.2411 24.2564 23.2411 25.0599 23.735 25.5538C23.9794 25.7979 24.2966 25.9178 24.6242 25.9178C24.9417 25.9178 25.2639 25.7979 25.5084 25.5538C27.6144 23.4424 28.6648 20.6762 28.6648 17.92C28.6648 15.1624 27.6144 12.4077 25.5084 10.3071Z" fill="white"/>
<path d="M29.4005 6.34901C28.9012 5.85473 28.1106 5.85473 27.6167 6.34901C27.1282 6.84329 27.1282 7.63349 27.6167 8.12741C30.3311 10.8418 31.6833 14.3792 31.6883 17.9302C31.6833 21.5025 30.3361 25.0597 27.6167 27.7845C27.1282 28.273 27.1282 29.0686 27.6167 29.5625C27.8615 29.8045 28.1887 29.9265 28.5059 29.9265C28.8285 29.9265 29.1507 29.8045 29.4005 29.5625C32.5987 26.3492 34.2 22.1372 34.2 17.9302C34.2 13.7441 32.5879 9.54833 29.4005 6.34901Z" fill="white"/>
</svg>
