<svg width="32" height="42" fill="none" xmlns="http://www.w3.org/2000/svg"><path d="M20.375 37.625a4.374 4.374 0 11-8.75 0h8.75zM5.5 22.33C5.5 27.274 3.494 31.755.25 35h31.5a17.866 17.866 0 01-5.25-12.67V17.5c0-2.693-1.024-5.141-2.692-7h.942A5.251 5.251 0 0030 5.25a5.251 5.251 0 00-8.962-3.712L16 6.826l-5.038-5.288A5.251 5.251 0 107.25 10.5h.94a10.452 10.452 0 00-2.69 7v4.83zM23.573 3.95a1.72 1.72 0 011.177-.45c.966 0 1.75.785 1.75 1.749 0 .964-.784 1.75-1.75 1.75h-4.08l2.903-3.049zM5.5 5.25c0-.964.784-1.75 1.75-1.75.63 0 1.046.321 1.177.451l2.904 3.05H7.25A1.754 1.754 0 015.5 5.25z" fill="#fff"/></svg>