<svg width="38" height="42" fill="none" xmlns="http://www.w3.org/2000/svg"><path d="M17.913 41.57c-.393-.256-.714-.846-.714-1.316v-3.917c0-.467-.335-.66-.74-.433l-1.659.93c-.407.228-1.075.228-1.478-.005l-.123-.066c-.408-.234-.738-.808-.738-1.276v-.28c0-.465.331-1.04.739-1.27l3.177-1.803c.406-.235.739-.805.739-1.272v-1.99c0-.47-.323-.646-.716-.394l-1.947 1.252c-.394.25-.715.078-.715-.39v-2.213c0-.468-.332-.658-.736-.424l-1.755 1.01c-.406.234-.738.81-.738 1.276v3.603c0 .468-.326 1.053-.722 1.3l-.32.197c-.398.246-1.042.237-1.433-.019l-.075-.052c-.387-.258-.708-.851-.708-1.321v-1.852c0-.466-.333-.66-.74-.432l-3.42 1.93c-.406.226-1.092.267-1.523.084l-.527-.22c-.429-.18-.783-.715-.783-1.177v-.544c0-.467.335-1.032.747-1.257l3.65-1.995c.412-.225.404-.581-.014-.793l-1.696-.852c-.42-.21-.76-.765-.76-1.233v-.35c0-.468.337-1.033.747-1.258l.332-.184c.41-.224 1.076-.215 1.48.025l3.147 1.854c.404.236 1.066.24 1.47.005l1.73-.997c.407-.235.72-.438.7-.456a23.392 23.392 0 00-.778-.453l-1.8-1.035c-.406-.231-.413-.623-.016-.87l1.737-1.075c.396-.25.392-.643-.015-.876l-1.72-1c-.405-.23-1.066-.227-1.468.007l-3.146 1.85c-.405.237-1.078.258-1.498.051l-.207-.104c-.418-.208-.76-.76-.76-1.23v-.343c0-.468.333-1.037.742-1.267l1.638-.92c.409-.229.404-.6-.006-.824L1.006 13.01c-.411-.22-.748-.786-.748-1.254v-.54c0-.467.34-1.024.756-1.242l.402-.206c.417-.216 1.09-.197 1.494.033l3.438 1.986c.405.234.736.043.736-.424V9.45c0-.468.318-1.064.705-1.326l.07-.048c.388-.263 1.037-.285 1.444-.049l.34.195c.404.234.736.81.733 1.277l-.008 3.705c0 .471.33 1.042.739 1.276l1.822 1.04c.403.234.736.04.734-.429l-.007-2.12c0-.47.335-.669.747-.449l1.963 1.054c.412.225.75.022.75-.446v-1.99c0-.467-.333-1.042-.738-1.274l-3.179-1.81c-.408-.23-.738-.803-.738-1.27v-.26c0-.47.33-1.045.734-1.279l.127-.073c.406-.236 1.072-.24 1.479-.01l1.657.932c.408.232.742.034.742-.433V1.755c0-.468.318-1.06.71-1.319l.374-.243c.39-.255 1.032-.259 1.426-.003l.384.252c.393.253.715.845.715 1.312v3.907c0 .467.336.665.744.44l1.764-.98c.41-.225 1.064-.2 1.455.058l.215.144c.39.257.71.852.71 1.32v.063c0 .467-.334 1.043-.74 1.273l-3.34 1.891c-.405.23-.737.802-.737 1.269v1.991c0 .468.326.648.725.407l1.843-1.122c.398-.243.725-.062.725.406v2.318c0 .47.339.666.749.446l1.897-1.037c.413-.224.749-.787.749-1.258V9.207c0-.47.346-1.01.772-1.21l.092-.045c.424-.196 1.12-.201 1.549-.01l.162.07c.428.19.779.724.779 1.195v1.996c0 .47.336.673.748.449l3.556-1.922c.412-.221 1.075-.202 1.476.037l.313.193c.4.244.727.824.727 1.295v.389c0 .468-.333 1.039-.738 1.27l-3.457 1.967c-.408.231-.405.61 0 .84l1.602.894c.41.23.745.8.745 1.267v.298c0 .468-.336 1.036-.746 1.26l-.112.065c-.409.223-1.073.215-1.477-.022l-3.272-1.936c-.403-.236-1.057-.226-1.452.023l-1.839 1.173c-.395.247-.392.656.003.902l1.726 1.076c.396.25.39.643-.016.876l-1.79 1.026c-.404.235-.399.603.016.822l1.865.977c.415.216 1.088.206 1.498-.02l3.252-1.819c.408-.225 1.057-.192 1.438.077l.132.092c.383.275.694.877.694 1.341v.209c0 .47-.333 1.04-.743 1.27l-1.489.835c-.407.229-.41.616-.008.852l3.269 1.943c.402.24.731.818.731 1.284v.507c0 .468-.347 1.008-.772 1.206l-.456.21c-.427.193-1.107.16-1.515-.071l-3.17-1.804c-.409-.232-.74-.038-.74.431v1.799c0 .468-.333 1.04-.744 1.266l-.185.106c-.408.227-1.075.223-1.479-.007l-.158-.092c-.409-.234-.74-.805-.74-1.273V29.15c0-.468-.33-1.04-.74-1.273L24.91 26.76c-.404-.232-.737-.038-.737.429v1.993c0 .468-.328.65-.727.404l-1.841-1.12c-.399-.247-.725-.062-.725.408v1.989c0 .468.331 1.037.738 1.273l3.176 1.803c.407.23.74.804.74 1.27v.392c0 .468-.344 1.023-.761 1.23l-.085.043c-.417.21-1.095.19-1.502-.038l-1.638-.927c-.407-.23-.74-.038-.74.43v3.916c0 .47-.323 1.061-.718 1.313l-.381.243c-.394.256-1.035.253-1.428 0l-.367-.24z" fill="#fff"/></svg>