<svg width="42" height="42" fill="none" xmlns="http://www.w3.org/2000/svg"><path d="M41.14 10.895c-1.32-.963-2.24-2.443-2.581-3.77-.847-2.903-3.365-5.049-6.42-5.467l-.69-.095a7.636 7.636 0 00-7.329 3.213l-2.597 3.87c-6.245-4.996-10.142-1.1-15.026-7.412C4.92-.806 1.687-.21.92 2.255A18.016 18.016 0 00.236 9.92a1.355 1.355 0 00.649.993c4.517 2.683 9.506 3.937 14.734 3.094a1.354 1.354 0 011.561 1.186 1.376 1.376 0 01-1.16 1.499c-4.276.683-8.62.156-12.852-1.598a.678.678 0 00-.847.969c1.924 3.277 4.988 5.766 9.1 6.968l-6.764 9.72a4.324 4.324 0 00.62 5.627.907.907 0 001.354-.137l5.245-7.27a1.356 1.356 0 011.943-.266c.572.454.66 1.291.232 1.883l-5.47 7.582a.908.908 0 00.31 1.335 4.304 4.304 0 005.47-1.257l3.363-4.565a1.947 1.947 0 012.048-.74c9.394 2.38 17.777-6.745 14.367-15.206-.649-1.61-.037-4.243 1.677-4.579l4.58-.902a1.88 1.88 0 00.744-3.361zm-10.025-.639a1.354 1.354 0 110-2.709 1.354 1.354 0 010 2.71z" fill="#fff"/></svg>