<svg width="28" height="42" fill="none" xmlns="http://www.w3.org/2000/svg"><path d="M18.138 15.402v-2.256h-.608a3.545 3.545 0 00-2.991-3.731v-.933h.48c.384.384.825.744 1.31 1.06 1.032.676 3.149 1.23 4.067-.207a4.89 4.89 0 00-.57-.85c-.094.3-1.786 1.61-4.626-1.408 0 0 4.349-.952 5.378 1.874.101-.416.266-.876.427-1.328.246-.684.499-1.391.56-2.029.104-1.102-.424-1.646-.885-1.908a2.302 2.302 0 00-1.153-.284c-.963 0-2.19.473-3.646 1.407-.542.346-1.01.69-1.342.946V0h-1.078v5.755a19.285 19.285 0 00-1.344-.946c-1.455-.933-2.682-1.407-3.645-1.407-.435 0-.822.096-1.154.284-.46.262-.988.807-.884 1.908.061.638.314 1.345.56 2.03.162.451.327.912.427 1.328C8.45 6.125 12.8 7.077 12.8 7.077c-2.84 3.018-4.531 1.708-4.626 1.41a4.98 4.98 0 00-.57.848c.918 1.438 3.034.884 4.067.208a8.22 8.22 0 001.31-1.06h.481v.932a3.546 3.546 0 00-2.992 3.732h-.607v2.256C4.362 17.154.38 22.302.38 28.38.38 35.903 6.478 42 14 42c7.522 0 13.62-6.097 13.62-13.62 0-6.079-3.984-11.227-9.482-12.978zM5.286 29.497l-1.405.086c-.005-.075-.11-1.885.42-3.963.723-2.838 2.29-4.803 4.53-5.682l.515 1.31c-4.4 1.726-4.064 8.183-4.06 8.249zm10.12-16.352h-2.811A1.428 1.428 0 0114 11.486a1.428 1.428 0 011.405 1.66z" fill="#fff"/></svg>