<svg width="36" height="36" fill="none" xmlns="http://www.w3.org/2000/svg"><path d="M32.988 23.11L30 23.912l-3.129-1.81 4.52-1.214a.89.89 0 00.629-1.092.891.891 0 00-1.09-.63l-6.238 1.674-2.068-1.196v-3.288l2.068-1.196 6.238 1.675a.888.888 0 001.09-.63.893.893 0 00-.63-1.093L26.871 13.9l3.13-1.81 2.987.802a.888.888 0 001.083-.632.893.893 0 00-.622-1.09l-2.485-.669.666-2.49a.892.892 0 00-1.305-1.006.89.89 0 00-.414.545l-.8 2.994-3.13 1.811 1.211-4.53a.894.894 0 00-.628-1.097.888.888 0 00-1.09.636l-1.672 6.252-2.068 1.197-2.84-1.644v-2.393l4.297-4.307a.893.893 0 00-.63-1.523.889.889 0 00-.629.262l-3.039 3.046V4.63l2.188-2.192a.892.892 0 00-.63-1.52.889.889 0 00-.629.26L18.003 3l-1.818-1.823a.89.89 0 10-1.259 1.261l2.188 2.192v3.622l-3.04-3.046a.889.889 0 00-1.518.63c0 .237.093.464.26.63l4.298 4.308v2.393l-2.841 1.644-2.068-1.197-1.573-5.883a.891.891 0 00-1.088-.624.89.89 0 00-.63 1.085l1.111 4.161-3.129-1.81-.8-2.995a.893.893 0 00-1.092-.636.89.89 0 00-.627 1.098l.665 2.49-2.484.667a.89.89 0 00-.476 1.404.891.891 0 00.937.318l2.988-.802 3.129 1.81-4.152 1.115a.889.889 0 00-.629 1.092.892.892 0 001.09.63l5.87-1.576 2.068 1.197v3.288l-2.068 1.196-5.87-1.577a.888.888 0 00-1.09.631.893.893 0 00.63 1.092l4.15 1.115-3.128 1.81-2.988-.803a.888.888 0 00-1.083.633.893.893 0 00.622 1.09l2.485.667-.666 2.49a.894.894 0 00.628 1.098.888.888 0 001.09-.636l.802-2.995 3.129-1.81-1.112 4.16a.894.894 0 00.975 1.122.89.89 0 00.744-.66l1.573-5.883 2.067-1.197 2.84 1.645v2.393l-4.566 4.577a.893.893 0 00.629 1.522.889.889 0 00.63-.26l3.308-3.317v3.622l-2.188 2.192a.892.892 0 001.259 1.261l1.818-1.823 1.82 1.823a.89.89 0 101.258-1.261l-2.188-2.192v-3.622l3.309 3.316a.889.889 0 001.519-.63.893.893 0 00-.261-.631l-4.567-4.577v-2.393l2.841-1.643 2.068 1.196 1.671 6.252a.892.892 0 001.404.48.892.892 0 00.315-.942l-1.21-4.53 3.128 1.812.801 2.994a.891.891 0 001.404.481.89.89 0 00.315-.942l-.666-2.49 2.485-.668a.89.89 0 00.622-1.09.891.891 0 00-1.083-.632z" fill="#fff"/></svg>