<svg width="36" height="36" fill="none" xmlns="http://www.w3.org/2000/svg"><path d="M18.366 3.85L7.64 11.855H4.35a2.56 2.56 0 00-2.55 2.571v7.228a2.56 2.56 0 002.55 2.572h3.29l10.498 7.79s1.93 1.608 1.93-.06V3.879c0-1.31-1.703-.027-1.703-.027zm7.142 6.457a1.246 1.246 0 00-1.773 0 1.246 1.246 0 000 1.774 8.215 8.215 0 012.418 5.839 8.27 8.27 0 01-2.418 5.85 1.259 1.259 0 000 1.784c.244.244.562.364.89.364.317 0 .639-.12.883-.364a10.782 10.782 0 003.157-7.634 10.71 10.71 0 00-3.157-7.613z" fill="#fff"/><path d="M29.4 6.349a1.258 1.258 0 10-1.783 1.778 13.829 13.829 0 014.071 9.803c-.005 3.573-1.352 7.13-4.071 9.855a1.262 1.262 0 000 1.777 1.27 1.27 0 001.784 0A16.445 16.445 0 0034.2 17.93c0-4.186-1.612-8.382-4.8-11.581z" fill="#fff"/></svg>