<svg width="85" height="101" fill="none" xmlns="http://www.w3.org/2000/svg"><path d="M43.841 55.845c-.734-.682-1.863-.682-2.54 0-.678.683-.678 1.82 0 2.559.677.682 1.806.682 2.54 0s.734-1.82 0-2.559z" fill="#603"/><path d="M42.6 19.622c-20.493 0-37.146 16.775-37.146 37.474 0 20.7 16.653 37.474 37.202 37.474 20.548 0 37.202-16.775 37.202-37.474-.057-20.699-16.71-37.417-37.259-37.474zm-1.75 3.582c0-.966.79-1.762 1.75-1.762s1.75.796 1.75 1.762v7.165c0 .967-.79 1.763-1.75 1.763s-1.75-.796-1.75-1.762v-7.166zM16.066 58.86H8.954c-.96 0-1.75-.796-1.75-1.763 0-.967.79-1.763 1.75-1.763h7.113c.96 0 1.75.796 1.75 1.763 0 .967-.79 1.763-1.75 1.763zm28.339 32.129c0 .966-.79 1.763-1.75 1.763s-1.75-.797-1.75-1.763v-7.165c0-.967.79-1.763 1.75-1.763s1.75.796 1.75 1.763v7.165zm3.556-33.892a5.388 5.388 0 01-4.685 5.346c-2.71.34-5.194-1.479-5.815-4.095a5.339 5.339 0 013.387-6.255V39.24c0-.966.79-1.762 1.75-1.762s1.75.796 1.75 1.762v12.795c.17.057.34.114.509.228l19.475-19.619a1.763 1.763 0 012.484 0c.678.683.678 1.82 0 2.502l-19.42 19.675c.34.683.565 1.479.565 2.275zm28.34 1.763h-7.114c-.96 0-1.75-.796-1.75-1.763 0-.967.79-1.763 1.75-1.763H76.3c.96 0 1.75.796 1.75 1.763 0 .967-.79 1.763-1.75 1.763z" fill="#603"/><path d="M46.043 14.447c-.96-.057-1.694-.91-1.637-1.933V5.349c0-.967.79-1.763 1.75-1.763h1.75c.451 0 .903-.17 1.242-.512.338-.341.564-.796.564-1.25 0-.968-.79-1.764-1.75-1.764h-10.67c-.45 0-.902.17-1.241.512-.339.341-.565.796-.565 1.251 0 .967.79 1.763 1.75 1.763h1.75c.96 0 1.75.796 1.75 1.763v7.165c.057.966-.677 1.82-1.637 1.933a42.036 42.036 0 00-20.266 7.108c-.056.057-.17.057-.226.114-.056.057-.113.057-.17.057a1.997 1.997 0 01-.62.114c-.226 0-.395-.057-.565-.114-.056 0-.056 0-.112-.057a1.332 1.332 0 01-.509-.341h-.056l-4.121-4.151c-.056-.057-.113-.17-.17-.228a1.19 1.19 0 01-.225-.34c0-.058-.057-.172-.057-.228-.056-.114-.056-.285-.056-.398 0-.171.056-.285.056-.399 0-.056 0-.17.057-.227.056-.114.113-.227.226-.284.056-.114.113-.17.169-.285a1.794 1.794 0 000-2.502 1.745 1.745 0 00-1.242-.511c-.451 0-.903.17-1.242.511l-5.024 5.061a1.794 1.794 0 000 2.502c.339.342.79.512 1.242.512.452 0 .903-.17 1.242-.512.17-.17.339-.284.508-.34.395-.171.847-.228 1.242-.058.282.057.508.228.734.398l3.556 3.583c.057.057.113.17.17.284.056.114.112.228.169.285a.726.726 0 01.056.34.725.725 0 01.057.342c0 .114-.057.227-.057.341 0 .114-.056.228-.056.341-.057.114-.113.17-.17.285-.056.113-.112.17-.169.284-14.677 13.818-17.726 36.11-7.339 53.453C16.52 96.731 37.52 104.351 56.486 97.641c18.968-6.653 30.71-25.817 28.17-45.89-2.427-20.187-18.63-35.712-38.613-37.304zm-3.444 83.706c-22.524 0-40.758-18.368-40.758-41.057 0-22.69 18.234-41.057 40.758-41.057 22.525 0 40.759 18.368 40.759 41.057 0 22.633-18.234 41-40.759 41.057z" fill="#603"/></svg>