<svg width="189" height="178" fill="none" xmlns="http://www.w3.org/2000/svg"><path fill-rule="evenodd" clip-rule="evenodd" d="M144.174 11.019H45.371v11.47H11.018v53.8c0 20.793 23.191 37.903 45.949 39.683 7.47 8.01 20.612 13.829 32.308 16.31v14.062c-11.185 3.437-31.163 11.514-32.308 20.314h76.756c-1.156-8.8-23.169-16.888-34.376-20.314v-14.062c11.741-2.481 25.471-8.3 32.953-16.31 22.747-1.78 44.915-18.89 44.915-39.683v-53.8h-33.041v-11.47zM21.568 32.679h23.003v46.347c0 9.145 2.357 17.845 6.504 25.677-17.21-5.485-29.507-19.614-29.507-36.145V32.679zm90.098 56.526L94.5 79.739l-17.188 9.468 3.28-20.026-13.897-14.173 19.2-2.926 8.605-18.2 8.583 18.2 19.2 2.926-13.897 14.173 3.28 20.025zm25.515 16.977c4.169-8.188 6.559-17.243 6.559-26.822V32.98h23.058v35.444c0 17.277-12.352 32.029-29.617 37.758z" fill="#FFBCA2"/></svg>