<svg width="41" height="38" fill="none" xmlns="http://www.w3.org/2000/svg"><path d="M7.42 15.857l7.717-1.106a2.614 2.614 0 001.96-1.376l3.466-6.818a.5.5 0 01.452-.27c.09 0 .331.03.452.27l3.406 6.818a2.614 2.614 0 001.96 1.376l7.716 1.106c.272.03.362.24.392.329.03.09.06.27-.12.448l-5.577 5.294a2.486 2.486 0 00-.754 2.272l1.327 7.477c.03.239-.09.358-.181.418-.09.06-.271.18-.543.03l-6.902-3.529a2.638 2.638 0 00-2.412 0l-6.903 3.529c-.24.12-.452 0-.542-.03a.432.432 0 01-.181-.418l1.326-7.477a2.486 2.486 0 00-.753-2.272l-5.577-5.294c-.18-.179-.15-.358-.12-.448.03-.09.12-.3.391-.329z" fill="#fff"/><path d="M1.603 16.425c-1.206-1.166-.543-3.23 1.145-3.469l10.28-1.495a2.034 2.034 0 001.536-1.107l4.582-9.21c.754-1.525 2.924-1.525 3.678 0l4.612 9.24a2.034 2.034 0 001.537 1.107l10.279 1.495c1.658.24 2.35 2.273 1.115 3.439l-7.445 7.177a2.103 2.103 0 00-.603 1.794l1.778 10.198c.302 1.674-1.477 2.93-2.984 2.153l-9.194-4.785a2.122 2.122 0 00-1.899 0l-9.193 4.785c-1.507.777-3.256-.479-2.984-2.153L9.62 25.426a1.99 1.99 0 00-.603-1.794l-7.415-7.207zm9.676 6.998c.12.09.15.239.12.388l-1.326 7.477a2.49 2.49 0 00.995 2.482 2.603 2.603 0 002.743.209l6.903-3.529c.15-.09.331-.09.482 0l6.903 3.529c.392.21.784.299 1.206.299a2.63 2.63 0 001.537-.508 2.487 2.487 0 00.995-2.483l-1.327-7.476a.44.44 0 01.12-.388l5.668-5.293a2.48 2.48 0 00.663-2.602 2.617 2.617 0 00-2.11-1.764l-7.717-1.077c-.15-.03-.301-.12-.362-.27L23.306 5.6a2.591 2.591 0 00-2.321-1.406A2.59 2.59 0 0018.664 5.6l-3.467 6.818c-.06.15-.21.239-.361.269l-7.717 1.106c-.995.15-1.809.808-2.11 1.765-.301.927-.03 1.914.663 2.602l5.607 5.263z" fill="#fff"/></svg>