<svg width="19" height="31" fill="none" xmlns="http://www.w3.org/2000/svg"><path d="M16.698 1.144L5.691 9.306H0V21.92h5.69l10.76 7.946s1.959 1.638 1.959-.062V1.175c.03-1.33-1.71-.03-1.71-.03zm-1.74 19.261a.616.616 0 01-.436.186.615.615 0 01-.436-.186l-3.949-3.957-3.98 3.957a.616.616 0 01-.435.186.616.616 0 01-.436-.186.609.609 0 01-.186-.433c0-.154.062-.309.186-.432l3.95-3.927-3.95-3.957a.609.609 0 01-.186-.433c0-.155.062-.31.186-.433.249-.247.653-.247.871 0l3.95 3.927 3.948-3.927c.249-.247.653-.247.871 0 .249.248.249.65 0 .866l-3.918 3.926 3.95 3.927a.632.632 0 010 .896z" fill="#603"/></svg>