<svg width="100" height="82" fill="none" xmlns="http://www.w3.org/2000/svg"><path d="M15.385 23.739H0v34.3h15.385l29.087 21.606s5.297 4.455 5.297-.168V1.629c0-3.615-4.708-.084-4.708-.084L15.385 23.739zm50.009-1.835c-1.221-1.213-3.257-1.213-4.478 0-1.222 1.213-1.222 3.235 0 4.448 4.071 4.044 6.107 9.3 6.107 14.625 0 5.325-2.036 10.582-6.107 14.625-1.222 1.214-1.222 3.235 0 4.449.61.606 1.425.943 2.239.943.814 0 1.629-.27 2.24-.944a26.854 26.854 0 007.938-19.073c0-6.942-2.646-13.816-7.939-19.073z" fill="#603"/><path d="M75.146 11.906a2.958 2.958 0 00-4.272 0c-1.165 1.215-1.165 3.241 0 4.457 6.537 6.82 9.773 15.666 9.773 24.58 0 8.914-3.236 17.828-9.773 24.649-1.165 1.215-1.165 3.241 0 4.457.583.607 1.36.945 2.136.945.777 0 1.553-.338 2.136-.945 7.702-8.036 11.52-18.639 11.52-29.106 0-10.534-3.818-21.001-11.52-29.037z" fill="#603"/><path d="M82.455 1.902c-1.31-1.21-3.495-1.21-4.805 0a2.997 2.997 0 000 4.439C87.988 15.89 93.157 28.4 93.157 40.91c0 12.577-5.17 25.086-15.507 34.704a2.997 2.997 0 000 4.438 3.57 3.57 0 002.402.942c.874 0 1.747-.269 2.403-.942C94.103 69.224 100 55.101 100 40.91c0-14.124-5.897-28.247-17.545-39.008z" fill="#603"/></svg>